<svg width="695" height="171" viewBox="0 0 695 171" fill="none" xmlns="http://www.w3.org/2000/svg">
<path d="M216.625 92.0312H191.312V158.75H227.094V170H178.812V80.4688H228.344V105.938H216.625V92.0312ZM292.3 99.5312V170H242.769V99.5312H254.644V158.75H279.8V99.5312H292.3ZM318.6 99.5312H356.256V170H306.725V64.375H318.6V99.5312ZM318.6 158.438L343.756 158.281V110.781H318.6V158.438ZM383.181 141.25V158.75H420.212V170H370.681V99.5312H419.9V141.25H383.181ZM383.181 129.688H408.494V111.094H383.181V129.688ZM472.45 92.0312H447.137V158.75H482.919V170H434.637V80.4688H484.169V105.938H472.45V92.0312ZM498.594 170V99.5312H548.125V170H498.594ZM536.406 111.094L511.094 111.25V158.75H536.406V111.094ZM600.362 99.5312V64.375H612.081V170H562.55V99.5312H600.362ZM600.362 158.438V110.781H575.05V158.281L600.362 158.438ZM639.006 141.25V158.75H676.038V170H626.506V99.5312H675.725V141.25H639.006ZM639.006 129.688H664.319V111.094H639.006V129.688Z" fill="white"/>
<path fill-rule="evenodd" clip-rule="evenodd" d="M165.071 53V63H63.0713V107H112.071L165.071 160V170H53.0713L53 170.071L0 117.071L0.0712891 117V7.14258L0 7.07129L0.0712891 7V0H112.071L165.071 53ZM63.0713 117V160H150.929L107.929 117H63.0713ZM53.0713 156V117H14.0713L53.0713 156ZM10.0713 107H53.0713V60L53 60.0713L10.0713 17.1426V107ZM60.0713 53H150.929L107.929 10H17.0713L60.0713 53Z" fill="white"/>
</svg>
